<svg xmlns="http://www.w3.org/2000/svg" width="1280" height="1090" viewBox="0 0 1280 1090">
  <rect width="1280" height="760" fill="#0b1017"/>
  <style>
    .panel { fill:#10151d; stroke:#8f6b43; stroke-width:3; }
    .soft { fill:#1b2630; stroke:#6e8b78; stroke-width:2; }
    .gold { fill:#f0c56d; font-family:sans-serif; }
    .text { fill:#f7efd7; font-family:sans-serif; }
    .muted { fill:#b7c2bb; font-family:sans-serif; }
    .caption { fill:#d0a45b; font: bold 18px sans-serif; letter-spacing:2px; }
  </style>
  <text x="32" y="30" class="caption">P1.3 UI STATIC REVIEW · 640×360 LANDSCAPE CONTRACT</text>

  <g transform="translate(32 54)">
    <rect width="576" height="324" rx="10" fill="#2f4b3d"/>
    <rect width="576" height="324" rx="10" fill="#071016" opacity=".48"/>
    <path d="M0 260 L576 210 L576 324 L0 324Z" fill="#18251e" opacity=".85"/>
    <text x="288" y="58" text-anchor="middle" class="gold" font-size="28" font-weight="bold">RPG FANTASÍA OSCURA</text>
    <text x="288" y="84" text-anchor="middle" class="muted" font-size="15">Un prólogo tranquilo en Liria</text>
    <rect x="70" y="112" width="270" height="184" rx="10" class="panel"/>
    <text x="205" y="138" text-anchor="middle" class="text" font-size="16">Comienza tu día en Liria</text>
    <rect x="88" y="150" width="234" height="34" rx="6" fill="#765632" stroke="#d0a45b"/>
    <text x="205" y="173" text-anchor="middle" class="text" font-size="15">Nueva partida</text>
    <rect x="88" y="190" width="234" height="30" rx="6" fill="#293745" stroke="#5d7380"/>
    <text x="205" y="210" text-anchor="middle" class="text" font-size="14">Continuar</text>
    <rect x="88" y="226" width="234" height="30" rx="6" fill="#293745" stroke="#5d7380"/>
    <text x="205" y="246" text-anchor="middle" class="text" font-size="14">Cargar partida</text>
    <text x="444" y="190" text-anchor="middle" class="gold" font-size="22">LIRIA</text>
    <text x="444" y="222" text-anchor="middle" class="text" font-size="14">Zona neutral de Ilyrion</text>
    <text x="444" y="250" text-anchor="middle" class="muted" font-size="13">Un día entre vecinos.</text>
    <text x="288" y="350" text-anchor="middle" class="caption">TITLE SCREEN</text>
  </g>

  <g transform="translate(640 54)">
    <rect width="608" height="324" rx="10" fill="#5d8a54"/>
    <path d="M0 150 L608 120 L608 324 L0 324Z" fill="#b18b58" opacity=".5"/>
    <rect x="12" y="12" width="206" height="72" rx="8" class="panel"/>
    <rect x="26" y="25" width="42" height="42" fill="#293745" stroke="#d0a45b"/>
    <text x="82" y="40" class="gold" font-size="15">Ari</text>
    <text x="82" y="58" class="muted" font-size="11">Nivel 1 · Guerrero</text>
    <rect x="82" y="66" width="88" height="6" fill="#bd4a4a"/>
    <rect x="176" y="66" width="30" height="6" fill="#4e83b9"/>
    <rect x="250" y="12" width="264" height="58" rx="8" class="panel"/>
    <text x="266" y="28" class="muted" font-size="10">OBJETIVO</text>
    <text x="266" y="47" class="gold" font-size="14">Un día cualquiera</text>
    <text x="266" y="63" class="text" font-size="11">Habla con Iria en la plaza.</text>
    <rect x="526" y="12" width="70" height="34" rx="6" fill="#293745" stroke="#5d7380"/>
    <text x="561" y="34" text-anchor="middle" class="text" font-size="12">Bolsa</text>
    <circle cx="92" cy="265" r="43" fill="#10151d" opacity=".65" stroke="#d0a45b" stroke-width="2"/>
    <circle cx="92" cy="265" r="18" fill="#52738b" stroke="#f0c56d" stroke-width="2"/>
    <rect x="500" y="248" width="96" height="46" rx="8" fill="#765632" stroke="#d0a45b"/>
    <text x="548" y="276" text-anchor="middle" class="text" font-size="14">Hablar</text>
    <text x="304" y="350" text-anchor="middle" class="caption">HUD NORMAL</text>
  </g>

  <g transform="translate(32 414)">
    <rect width="576" height="292" rx="10" fill="#5d8a54"/>
    <path d="M0 0 L576 40 L576 292 L0 292Z" fill="#b18b58" opacity=".46"/>
    <rect x="58" y="154" width="460" height="112" rx="10" class="panel"/>
    <rect x="76" y="174" width="58" height="58" fill="#293745" stroke="#d0a45b"/>
    <text x="105" y="211" text-anchor="middle" class="gold" font-size="22">I</text>
    <text x="152" y="187" class="gold" font-size="16">Iria</text>
    <text x="152" y="210" class="text" font-size="13">La plaza está despierta. ¿Puedes ayudarme?</text>
    <text x="152" y="230" class="text" font-size="13">Halven tiene algo para ti.</text>
    <rect x="350" y="238" width="150" height="24" rx="5" fill="#765632" stroke="#d0a45b"/>
    <text x="425" y="255" text-anchor="middle" class="text" font-size="11">Claro, voy a verlo.</text>
    <text x="288" y="284" text-anchor="middle" class="caption">DIALOGUE SHORT / PORTRAIT / COMPACT CHOICE</text>
  </g>

  <g transform="translate(640 414)">
    <rect width="608" height="292" rx="10" fill="#5d8a54"/>
    <path d="M0 0 L608 40 L608 292 L0 292Z" fill="#b18b58" opacity=".46"/>
    <rect x="64" y="112" width="480" height="154" rx="10" class="panel"/>
    <text x="304" y="140" text-anchor="middle" class="gold" font-size="16">MISIÓN COMPLETADA</text>
    <text x="304" y="171" text-anchor="middle" class="text" font-size="14">Un día cualquiera</text>
    <text x="304" y="198" text-anchor="middle" class="muted" font-size="13">La linterna vuelve a manos de Iria.</text>
    <rect x="186" y="218" width="236" height="28" rx="6" fill="#1b2630" stroke="#6e8b78"/>
    <text x="304" y="237" text-anchor="middle" class="text" font-size="12">Explora Liria.</text>
    <text x="304" y="284" text-anchor="middle" class="caption">QUEST FEEDBACK / CLEAR NEXT ACTIVITY</text>
  </g>

  <g transform="translate(32 744)">
    <rect width="576" height="292" rx="10" fill="#182d2b"/>
    <rect width="576" height="292" rx="10" fill="#071016" opacity=".42"/>
    <text x="288" y="44" text-anchor="middle" class="gold" font-size="24" font-weight="bold">NUEVA PARTIDA</text>
    <rect x="96" y="62" width="384" height="196" rx="10" class="panel"/>
    <text x="122" y="92" class="text" font-size="14">Nombre del aventurero</text>
    <rect x="122" y="102" width="332" height="30" rx="5" fill="#1b2630" stroke="#6e8b78"/>
    <text x="138" y="122" class="muted" font-size="13">Ari</text>
    <text x="122" y="158" class="text" font-size="14">Clase inicial</text>
    <rect x="122" y="168" width="332" height="30" rx="5" fill="#1b2630" stroke="#6e8b78"/>
    <text x="138" y="188" class="text" font-size="13">Guerrero</text>
    <rect x="122" y="208" width="332" height="32" rx="6" fill="#765632" stroke="#d0a45b"/>
    <text x="288" y="229" text-anchor="middle" class="text" font-size="14">Entrar en Liria</text>
    <text x="288" y="284" text-anchor="middle" class="caption">NEW GAME / TOUCH-SAFE FORM</text>
  </g>

  <g transform="translate(640 744)">
    <rect width="608" height="292" rx="10" fill="#3b654b"/>
    <path d="M0 0 L608 42 L608 292 L0 292Z" fill="#b18b58" opacity=".40"/>
    <rect x="44" y="64" width="520" height="196" rx="10" class="panel"/>
    <rect x="62" y="84" width="60" height="60" fill="#293745" stroke="#d0a45b"/>
    <text x="92" y="121" text-anchor="middle" class="gold" font-size="22">H</text>
    <text x="140" y="99" class="gold" font-size="16">Halven</text>
    <text x="140" y="122" class="text" font-size="13">La plaza se ha quedado tranquila. La linterna</text>
    <text x="140" y="142" class="text" font-size="13">está lista; regresa con Iria cuando termines.</text>
    <rect x="78" y="166" width="472" height="26" rx="5" fill="#293745" stroke="#5d7380"/>
    <text x="92" y="184" class="text" font-size="12">De acuerdo, volveré con Iria.</text>
    <rect x="78" y="198" width="472" height="26" rx="5" fill="#293745" stroke="#5d7380"/>
    <text x="92" y="216" class="text" font-size="12">¿Puedes repetirme el encargo?</text>
    <text x="304" y="284" text-anchor="middle" class="caption">DIALOGUE LONG / COMPACT CHOICES</text>
  </g>
</svg>
